<svg xmlns="http://www.w3.org/2000/svg" viewBox="0 0 64 64" role="img" aria-label="Smol ID icon">
  <defs>
    <linearGradient id="bg" x1="0%" y1="0%" x2="100%" y2="100%">
      <stop offset="0%" stop-color="#122218" />
      <stop offset="100%" stop-color="#1f3d2b" />
    </linearGradient>
    <linearGradient id="kale" x1="0%" y1="0%" x2="100%" y2="100%">
      <stop offset="0%" stop-color="#8cff7a" />
      <stop offset="100%" stop-color="#21b35a" />
    </linearGradient>
  </defs>
  <rect x="4" y="4" width="56" height="56" rx="14" fill="url(#bg)" />
  <path d="M32 47c-8.5 0-16-5.4-16-13.3C16 24.1 24.3 18 32 18s16 6.1 16 15.7C48 41.6 40.5 47 32 47Z" fill="url(#kale)" />
  <path d="M32 44.5c-1.2 0-2.1-.9-2.1-2.1V22.7c0-1.2.9-2.1 2.1-2.1s2.1.9 2.1 2.1v19.7c0 1.2-.9 2.1-2.1 2.1Z" fill="#0f3c27" />
  <path d="M21.8 35.1c-.8-.9-.7-2.2.2-3l9.2-7.8c.9-.8 2.2-.7 3 .2.8.9.7 2.2-.2 3l-9.2 7.8c-.9.8-2.2.7-3-.2Z" fill="#0f3c27" />
  <path d="M39.2 35.1c-.8.9-2.1 1-3 .2L27 27.5c-.9-.8-1-2.1-.2-3 .8-.9 2.1-1 3-.2l9.2 7.8c.9.8 1 2.1.2 3Z" fill="#0f3c27" />
</svg>
